<?xml version="1.0" encoding="UTF-8"?>
<svg width="160" height="40" viewBox="0 0 160 40" fill="none" xmlns="http://www.w3.org/2000/svg" role="img" aria-labelledby="title desc">
  <title id="title">Logo Puskesmas Ponre - Sistem Pakar Ibu Hamil</title>
  <desc id="desc">Siluet perisai dengan tanda plus dan hati, menandakan kesehatan dan kepedulian.</desc>
  <defs>
    <linearGradient id="g" x1="0" y1="0" x2="1" y2="1">
      <stop offset="0" stop-color="#1e88e5"/>
      <stop offset="1" stop-color="#42a5f5"/>
    </linearGradient>
  </defs>
  <!-- Emblem -->
  <g transform="translate(4,4)">
    <rect x="0" y="0" width="32" height="32" rx="8" fill="url(#g)"/>
    <path d="M8 16h16M16 8v16" stroke="#ffffff" stroke-width="2" stroke-linecap="round"/>
    <path d="M12.5 22.5c2-3 6-3 8 0c-2 3-4 4.5-4 4.5s-2-1.5-4-4.5z" fill="#ffffff" fill-opacity="0.9"/>
  </g>
  <!-- Wordmark -->
  <g transform="translate(44,9)" fill="#1e88e5">
    <path d="M0 20V0h4.6c2.9 0 5 1.3 6.2 3.5c.7 1.2 1.1 2.7 1.1 4.3c0 1.6-.4 3.1-1.1 4.3C9.3 14.6 7.2 16 4.3 16H3.2V20H0zm3.2-7.7h1.1c2 0 3.3-1.7 3.3-4.5c0-2.8-1.3-4.5-3.3-4.5H3.2v9z"/>
    <path d="M23.7 20c-4 0-6.9-3-6.9-7.1c0-4.1 2.9-7.1 6.9-7.1s6.9 3 6.9 7.1c0 4.1-2.9 7.1-6.9 7.1zm0-3c2.2 0 3.7-1.8 3.7-4.1c0-2.3-1.5-4.1-3.7-4.1c-2.1 0-3.6 1.8-3.6 4.1c0 2.3 1.5 4.1 3.6 4.1z"/>
    <path d="M36.6 19.8V6.1h3.1l.2 1.8c.9-1.4 2.2-2.1 4-2.1c3.1 0 5.1 2.4 5.1 6.2V20h-3.2v-7.5c0-2.2-1-3.6-2.8-3.6c-1.9 0-3.1 1.4-3.1 3.6V20h-3.3z"/>
  </g>
</svg>
